<svg id="Layer_1" data-name="Layer 1" xmlns="http://www.w3.org/2000/svg" viewBox="0 0 1366 768"><defs><style>.cls-1{fill:#d6d6d6;}.cls-2{fill:#e7e8e9;}.cls-3{fill:#e2e2e2;}.cls-4{fill:#d8d8d8;}.cls-5{fill:#ddd;}</style></defs><title>Untitled-6</title><polygon class="cls-1" points="516.18 426.93 636.05 602.41 889.38 459.06 767.04 314.48 516.18 426.93"/><polygon class="cls-2" points="634.81 601.17 1022.84 382.44 1137.76 533.21 744.79 768 634.81 601.17"/><polygon class="cls-2" points="430.91 302.12 354.3 168.66 718.84 10.48 821.41 129.12 430.91 302.12"/><polygon class="cls-2" points="449.45 675.32 271.5 373.8 430.91 302.12 636.05 602.41 449.45 675.32"/><polygon class="cls-2" points="960.34 85.88 1139 316.95 1022.84 382.44 821.41 129.12 960.34 85.88"/><polygon class="cls-3" points="767.04 314.48 821.41 129.12 430.91 302.12 516.33 427.16 767.04 314.48"/><polygon class="cls-4" points="600.21 743.28 636.05 591.29 699.43 687.44 600.21 743.28"/><polygon class="cls-5" points="767.04 314.48 821.41 129.12 1022.84 382.44 886.91 459.06 767.04 314.48"/><polygon class="cls-3" points="551.54 635.43 600.21 743.28 636.05 602.41 551.54 635.43"/></svg>